<?xml version="1.0" standalone="no"?>
<!DOCTYPE svg PUBLIC "-//W3C//DTD SVG 20010904//EN"
 "http://www.w3.org/TR/2001/REC-SVG-20010904/DTD/svg10.dtd">
<svg version="1.0" xmlns="http://www.w3.org/2000/svg"
 width="1024.000000pt" height="1024.000000pt" viewBox="0 0 1024.000000 1024.000000"
 preserveAspectRatio="xMidYMid meet">
<metadata>
Created by potrace 1.14, written by Peter Selinger 2001-2017
</metadata>
<g transform="translate(0.000000,1024.000000) scale(0.100000,-0.100000)"
fill="#000000" stroke="none">
<path d="M0 5120 l0 -5120 5120 0 5120 0 0 5120 0 5120 -5120 0 -5120 0 0
-5120z m5283 3685 c125 -8 285 -19 355 -25 70 -5 244 -16 387 -25 443 -27
1096 -70 1415 -95 75 -5 161 -17 193 -25 114 -29 259 -118 344 -208 64 -70
130 -177 97 -159 -11 5 -44 9 -74 8 l-55 -1 -7 -61 c-11 -101 -45 -196 -171
-474 -218 -484 -304 -674 -337 -745 -43 -94 -230 -494 -291 -623 -27 -57 -49
-106 -49 -108 0 -2 -9 -18 -21 -36 -17 -28 -19 -29 -14 -8 4 14 24 61 45 105
20 44 41 91 45 105 4 14 22 54 40 90 18 36 38 83 45 105 7 22 21 54 30 70 10
17 27 53 38 80 22 55 74 172 206 460 48 105 112 246 143 315 30 69 87 195 125
280 106 233 130 308 132 410 2 135 -41 228 -139 302 -84 64 -185 87 -435 102
-212 13 -573 37 -705 46 -134 10 -421 28 -775 50 -91 5 -298 20 -460 32 -366
27 -474 28 -560 3 -149 -42 -292 -147 -383 -283 -44 -66 -109 -188 -155 -292
-46 -106 -157 -353 -202 -450 -27 -58 -66 -145 -88 -195 -53 -121 -84 -189
-148 -324 -30 -62 -54 -116 -54 -119 0 -8 -52 -112 -56 -112 -4 0 3 18 51 130
21 47 50 114 65 150 15 36 49 110 75 165 26 55 81 177 122 270 41 94 83 188
94 210 10 22 59 129 108 238 49 109 106 226 125 260 112 202 279 334 476 378
95 22 143 22 423 4z m-153 -120 c195 -13 340 -25 518 -41 103 -9 120 -40 82
-149 -40 -115 -21 -159 72 -169 29 -3 166 -15 304 -27 235 -20 254 -20 306 -5
70 20 125 78 157 165 13 36 34 70 52 85 28 24 39 26 117 26 147 0 776 -52 841
-70 51 -13 115 -61 146 -108 14 -21 30 -65 36 -98 20 -114 -1 -173 -257 -720
-52 -111 -94 -207 -94 -214 0 -6 -4 -9 -8 -6 -4 2 -8 -3 -9 -12 -1 -9 -25 -66
-54 -127 -29 -60 -66 -143 -84 -182 -17 -40 -34 -71 -37 -68 -2 3 -5 -1 -5 -9
0 -26 -66 -165 -76 -159 -6 3 -7 1 -3 -5 8 -13 -63 -184 -74 -177 -9 6 -30
-40 -30 -65 0 -11 -4 -20 -10 -20 -5 0 -10 -12 -10 -26 0 -14 -4 -23 -10 -19
-6 4 -10 -5 -10 -20 0 -15 -4 -24 -10 -20 -6 4 -10 -5 -10 -20 0 -15 -4 -24
-10 -20 -9 5 -15 -15 -11 -37 0 -5 -3 -8 -9 -8 -5 0 -10 -12 -10 -26 0 -14 -4
-23 -10 -19 -6 4 -10 -5 -10 -20 0 -15 -4 -24 -10 -20 -5 3 -10 2 -10 -4 0 -6
-13 -38 -29 -73 -16 -35 -32 -70 -34 -78 -3 -8 -6 3 -8 25 l-2 40 -6 -39 c-3
-22 -12 -42 -20 -44 -10 -3 -12 0 -7 13 3 10 1 24 -5 31 -6 7 -8 18 -4 24 4 6
-1 20 -11 31 -17 19 -17 20 0 13 17 -6 17 -5 3 23 -21 40 -112 137 -437 463
-284 286 -365 355 -512 434 -119 65 -195 93 -323 121 -188 40 -287 48 -468 35
-258 -17 -279 -26 -52 -22 238 5 310 -4 512 -62 274 -79 514 -244 677 -466 25
-34 43 -67 39 -73 -3 -5 -2 -7 4 -4 8 5 57 -72 58 -92 1 -3 9 -20 18 -38 9
-18 16 -36 15 -40 -1 -4 5 -19 14 -33 9 -14 19 -36 22 -50 3 -14 3 -19 0 -12
-3 6 -11 9 -17 5 -6 -4 -8 0 -4 10 7 19 -8 23 -19 6 -4 -8 -9 -8 -17 0 -15 15
-27 14 -27 -4 0 -8 -4 -15 -10 -15 -5 0 -10 5 -10 11 0 5 -5 7 -11 3 -8 -4 -7
-9 2 -15 7 -4 10 -11 6 -15 -4 -4 -8 -5 -10 -3 -2 2 -29 42 -60 89 -72 106
-133 174 -148 164 -7 -4 -9 -3 -5 4 3 6 -3 20 -16 31 -23 22 -38 20 -19 -2 9
-12 6 -16 -19 -20 -16 -4 -30 -11 -30 -17 0 -6 -13 -29 -30 -51 -27 -37 -29
-47 -24 -93 4 -28 11 -57 16 -63 6 -7 8 -22 5 -33 -3 -11 -1 -18 3 -15 18 11
17 -11 -1 -29 -17 -17 -19 -18 -19 -3 0 9 -4 17 -10 17 -5 0 -2 -21 6 -47 16
-53 48 -187 58 -245 4 -24 3 -38 -4 -38 -5 0 -11 15 -11 33 -2 30 -2 30 -6 5
-4 -23 -9 -28 -34 -28 l-30 0 2 105 c1 58 -1 109 -5 112 -3 4 -6 13 -6 22 1
10 7 5 16 -12 8 -15 12 -32 9 -37 -4 -6 1 -17 9 -26 9 -8 16 -13 16 -10 0 20
-53 168 -65 179 -8 8 -11 17 -8 21 4 3 1 6 -6 6 -7 0 -9 5 -5 13 4 7 3 9 -2 4
-5 -5 -10 -13 -10 -18 -3 -22 -6 -23 -13 -5 -6 17 -13 14 -57 -30 -60 -60 -97
-129 -93 -175 2 -19 -1 -40 -5 -47 -5 -8 -2 -20 7 -30 12 -13 12 -19 3 -28
-12 -11 -57 -7 -196 17 -30 5 -71 10 -90 10 l-35 0 35 14 35 15 -35 -7 c-58
-11 -113 -7 -380 25 -330 41 -346 43 -360 52 -8 5 -8 22 4 67 9 34 16 92 16
131 0 59 -5 79 -31 128 -40 77 -105 137 -172 158 -67 20 -272 40 -353 33 -43
-3 -79 -14 -123 -37 -167 -89 -241 -274 -168 -422 31 -63 91 -121 143 -138 27
-9 34 -17 34 -37 0 -14 -23 -112 -51 -217 -28 -105 -64 -246 -80 -313 -16 -68
-43 -180 -59 -250 -66 -280 -71 -308 -65 -350 14 -97 120 -230 205 -258 26 -9
118 -29 206 -46 319 -60 415 -79 734 -145 359 -73 441 -81 545 -50 127 38 189
88 339 276 256 319 510 696 547 810 4 14 15 45 24 70 46 125 85 490 68 635 -6
50 -14 99 -17 110 -3 11 0 6 8 -11 30 -63 72 -353 52 -355 -6 0 -5 -3 2 -6 9
-3 12 -36 10 -121 -1 -103 -2 -108 -7 -47 -5 53 -8 64 -14 47 -5 -12 -13 -20
-18 -17 -5 4 -9 -5 -9 -20 0 -54 -42 -212 -75 -282 -19 -40 -35 -74 -35 -77 0
-13 -107 -187 -165 -268 -205 -286 -360 -490 -446 -585 -179 -197 -331 -236
-683 -173 -65 11 -120 19 -122 17 -6 -6 48 -103 74 -132 12 -14 23 -31 25 -38
1 -6 7 -15 12 -19 12 -9 -105 1 -125 11 -8 4 -33 9 -55 10 -22 1 -53 6 -70 11
-16 5 -129 28 -250 50 -121 23 -263 50 -315 60 -176 36 -329 60 -343 54 -8 -3
-21 2 -30 10 -8 8 -17 13 -19 10 -10 -10 -67 67 -79 105 -9 31 -9 54 0 97 9
47 8 60 -3 73 -8 9 -35 58 -61 109 -25 50 -48 92 -51 92 -2 0 -3 -10 -2 -22 1
-13 -11 -50 -26 -82 -40 -88 -60 -172 -60 -256 0 -65 4 -83 33 -140 18 -36 56
-86 83 -113 43 -40 47 -47 28 -47 -20 0 -47 23 -97 84 -22 26 -43 28 -43 3 0
-9 2 -9 8 0 5 9 12 6 21 -10 13 -19 12 -21 -1 -10 -8 7 -17 10 -21 7 -10 -10
-78 59 -72 73 2 8 1 12 -4 9 -23 -15 -174 266 -225 418 -59 178 -71 261 -71
511 0 186 4 246 19 315 29 137 73 262 142 408 126 266 217 403 386 578 52 54
87 101 104 140 15 33 61 136 104 229 43 94 90 197 105 230 68 149 350 775 448
993 62 137 110 208 189 274 69 59 144 97 232 119 39 10 73 18 76 18 3 1 102
-6 220 -14z m-526 -69 c-3 -9 -10 -16 -14 -16 -4 0 -21 -14 -38 -31 -18 -18
-30 -25 -28 -16 3 20 26 48 36 42 4 -3 15 7 25 21 18 27 30 28 19 0z m2723
-12 c-3 -3 -12 -4 -19 -1 -8 3 -5 6 6 6 11 1 17 -2 13 -5z m-2813 -86 c-9 -14
-23 2 -17 18 4 12 8 13 14 3 4 -7 5 -17 3 -21z m-37 -27 c0 -11 -5 -18 -9 -15
-4 3 -5 11 -1 19 7 21 12 19 10 -4z m3660 -448 c-3 -10 -5 -4 -5 12 0 17 2 24
5 18 2 -7 2 -21 0 -30z m-22 -139 c-9 -31 -18 -54 -20 -52 -2 2 2 26 10 53 8
26 16 60 16 74 2 24 2 24 6 3 2 -12 -3 -47 -12 -78z m-4400 -994 c-4 -12 -9
-19 -12 -17 -3 3 -2 15 2 27 4 12 9 19 12 17 3 -3 2 -15 -2 -27z m3845 -15
c23 -24 23 -26 7 -58 l-16 -32 0 31 c-1 17 -8 37 -16 44 -8 7 -13 16 -10 20 3
5 -1 11 -7 13 -9 4 -8 6 3 6 8 1 26 -10 39 -24z m-3939 -196 c-5 -13 -10 -19
-10 -12 -1 15 10 45 15 40 3 -2 0 -15 -5 -28z m3852 -54 c-3 -9 -8 -14 -10
-11 -3 3 -2 9 2 15 9 16 15 13 8 -4z m-22 -52 c-12 -20 -14 -14 -5 12 4 9 9
14 11 11 3 -2 0 -13 -6 -23z m-25 -56 c-17 -42 -45 -94 -46 -86 0 10 51 119
56 119 2 0 -2 -15 -10 -33z m-1506 13 c0 -5 -4 -10 -10 -10 -5 0 -10 5 -10 10
0 6 5 10 10 10 6 0 10 -4 10 -10z m-1702 -15 c62 -8 125 -21 142 -30 30 -16
70 -79 70 -112 0 -10 -63 -269 -140 -576 -77 -306 -140 -566 -140 -577 0 -38
32 -101 59 -114 36 -19 69 -25 571 -116 245 -44 456 -83 471 -86 23 -5 37 10
155 158 178 223 384 491 381 495 -3 3 -431 73 -507 83 -36 5 -116 16 -179 25
-63 9 -123 14 -133 12 -10 -3 -16 -2 -13 3 3 4 -48 16 -113 25 -302 44 -353
52 -357 56 -2 3 7 47 20 99 14 52 25 105 25 117 0 12 4 24 10 28 5 3 62 -3
127 -14 65 -11 177 -27 248 -36 163 -20 806 -110 940 -131 146 -23 192 -52
209 -131 17 -76 -43 -215 -128 -298 -18 -17 -47 -52 -65 -78 -17 -26 -37 -47
-43 -47 -6 0 -8 -3 -5 -7 10 -10 -34 -54 -46 -46 -6 3 -7 1 -3 -6 9 -13 -12
-44 -24 -36 -4 3 -7 -3 -6 -13 1 -11 -5 -16 -18 -14 -11 2 -15 -1 -11 -8 10
-16 -31 -76 -81 -116 -24 -20 -42 -39 -40 -43 6 -10 -16 -36 -42 -50 -15 -8
-21 -18 -18 -27 3 -8 2 -12 -4 -9 -5 3 -17 -6 -26 -20 -9 -14 -21 -25 -28 -25
-6 0 -21 -16 -34 -35 -12 -19 -29 -35 -38 -35 -8 0 -12 -4 -9 -10 3 -5 -1 -10
-10 -10 -9 0 -14 -4 -10 -9 9 -16 -107 -63 -170 -68 -60 -5 -231 20 -705 102
-107 19 -235 41 -285 50 -226 38 -281 61 -311 132 -28 65 -27 67 172 880 94
381 101 413 87 413 -130 8 -192 32 -216 83 -9 19 -17 42 -17 51 0 35 34 96 63
115 38 25 77 26 225 6z m3143 -138 c-10 -9 -11 -8 -5 6 3 10 9 15 12 12 3 -3
0 -11 -7 -18z m-40 -83 c-16 -33 -30 -56 -31 -52 0 11 53 118 58 114 2 -2 -10
-30 -27 -62z m-1433 -19 c-3 -3 -9 2 -12 12 -6 14 -5 15 5 6 7 -7 10 -15 7
-18z m1378 -102 c-8 -15 -15 -25 -16 -21 0 12 23 58 27 54 3 -2 -2 -17 -11
-33z m-30 -66 c-17 -42 -45 -94 -46 -86 0 11 49 119 55 119 3 0 -1 -15 -9 -33z
m-1521 -57 c-3 -5 -12 -10 -18 -10 -7 0 -6 4 3 10 19 12 23 12 15 0z m1188
-75 c-3 -9 -8 -14 -10 -11 -3 3 -2 9 2 15 9 16 15 13 8 -4z m-32 -72 c-12 -20
-14 -14 -5 12 4 9 9 14 11 11 3 -2 0 -13 -6 -23z m-20 -50 c-12 -20 -14 -14
-5 12 4 9 9 14 11 11 3 -2 0 -13 -6 -23z m-38 -88 c-3 -9 -8 -14 -10 -11 -3 3
-2 9 2 15 9 16 15 13 8 -4z m-406 -112 c-2 -16 -4 -5 -4 22 0 28 2 40 4 28 2
-13 2 -35 0 -50z m369 30 c-8 -15 -15 -25 -16 -21 0 12 23 58 27 54 3 -2 -2
-17 -11 -33z m-47 -109 c-17 -38 -65 -145 -105 -239 -106 -241 -167 -375 -171
-371 -2 1 17 50 43 107 25 57 51 120 59 140 7 19 22 55 33 80 11 24 41 91 67
149 64 143 98 211 102 206 2 -2 -10 -34 -28 -72z m-357 -86 c-17 -62 -37 -129
-46 -148 -9 -19 -14 -26 -10 -15 6 21 57 220 69 270 4 17 9 25 12 18 2 -6 -9
-63 -25 -125z m-1554 7 c547 -89 597 -97 605 -102 4 -2 -21 -38 -55 -79 -35
-42 -79 -95 -98 -119 -19 -24 -41 -46 -48 -49 -12 -5 -44 -1 -257 37 -150 27
-423 70 -525 82 -30 4 -60 10 -66 13 -7 5 0 49 22 137 18 72 33 132 33 134 1
6 100 -7 389 -54z m-1799 -540 c41 -250 151 -503 301 -688 47 -58 49 -62 33
-79 -9 -10 -23 -16 -30 -14 -7 3 -12 2 -11 -2 5 -13 -45 -71 -55 -65 -6 3 -7
2 -4 -4 3 -5 -7 -35 -24 -68 -16 -32 -29 -65 -29 -75 0 -9 -3 -20 -6 -23 -4
-4 -6 -43 -5 -88 3 -96 22 -156 77 -231 20 -29 48 -69 62 -88 l24 -35 -26 30
c-27 32 -33 28 -15 -8 9 -20 8 -20 -11 2 -12 14 -19 32 -17 41 2 10 -5 22 -17
30 -17 10 -19 10 -8 -1 16 -17 15 -26 -3 -26 -8 0 -15 8 -15 18 0 10 -5 21
-12 25 -7 5 -9 2 -6 -8 4 -8 0 -15 -7 -15 -10 0 -11 5 -5 17 13 24 8 26 -44
22 -28 -3 -46 -9 -46 -17 0 -9 -43 -11 -196 -7 -154 4 -198 2 -204 -8 -7 -11
-28 -11 -109 -2 -128 15 -194 15 -208 1 -13 -13 -33 -4 -33 17 0 8 -4 14 -10
14 -5 0 -10 7 -10 15 0 8 -6 15 -14 15 -16 0 -32 -36 -27 -59 2 -10 -2 -10
-14 3 -20 19 -26 20 -19 3 3 -8 -6 -22 -20 -32 -17 -13 -24 -27 -22 -44 2 -14
1 -18 -1 -8 -2 9 -9 17 -14 17 -12 0 -12 -5 6 -47 21 -50 18 -66 -3 -19 l-18
40 -13 -31 c-7 -18 -10 -37 -5 -44 4 -7 3 -10 -4 -5 -13 7 -24 -8 -27 -38 -4
-36 -5 -37 -15 -31 -5 3 -10 -3 -10 -14 0 -11 -4 -22 -10 -26 -5 -3 -6 -13 -3
-22 4 -10 2 -14 -4 -10 -14 9 -78 -127 -68 -144 5 -8 4 -11 0 -6 -11 10 -67
-101 -59 -116 4 -7 4 -9 -1 -5 -10 10 -38 -52 -66 -144 -21 -69 -23 -157 -4
-202 6 -14 5 -17 -3 -12 -12 7 -16 -8 -14 -49 0 -11 -8 -1 -18 22 -15 34 -18
61 -16 135 4 116 8 126 316 783 54 116 136 293 183 395 47 102 110 237 140
300 30 63 78 167 107 230 29 63 116 250 192 415 77 165 152 329 166 365 l27
65 7 -145 c3 -80 11 -176 17 -215z m3852 258 c-12 -20 -14 -14 -5 12 4 9 9 14
11 11 3 -2 0 -13 -6 -23z m-35 -80 c-8 -15 -15 -25 -16 -21 0 12 23 58 27 54
3 -2 -2 -17 -11 -33z m-1212 -138 c-4 -8 -11 -15 -16 -15 -6 0 -5 6 2 15 7 8
14 15 16 15 2 0 1 -7 -2 -15z m1132 -42 c-8 -15 -15 -25 -16 -21 0 12 23 58
27 54 3 -2 -2 -17 -11 -33z m-397 -209 c-50 -110 -126 -275 -169 -369 -103
-225 -142 -305 -134 -275 4 14 33 86 66 160 76 174 80 181 153 335 34 72 86
181 115 243 29 61 55 110 57 108 2 -2 -38 -93 -88 -202z m342 89 c-12 -20 -14
-14 -5 12 4 9 9 14 11 11 3 -2 0 -13 -6 -23z m-1233 -17 c-7 -8 -15 -12 -17
-11 -5 6 10 25 20 25 5 0 4 -6 -3 -14z m1203 -49 c-10 -9 -11 -8 -5 6 3 10 9
15 12 12 3 -3 0 -11 -7 -18z m-60 -134 c-11 -21 -20 -35 -21 -31 0 12 33 78
38 74 2 -2 -6 -21 -17 -43z m-30 -70 c-12 -20 -14 -14 -5 12 4 9 9 14 11 11 3
-2 0 -13 -6 -23z m-28 -63 c-9 -22 -18 -38 -20 -36 -5 5 24 76 31 76 2 0 -3
-18 -11 -40z m-52 -116 c-16 -33 -30 -56 -31 -52 0 11 53 118 58 114 2 -2 -10
-30 -27 -62z m-66 -147 c-20 -43 -38 -77 -40 -77 -4 0 17 52 55 133 7 15 15
26 17 24 2 -2 -13 -38 -32 -80z m-2264 -96 c78 -17 143 -31 144 -33 2 -2 -7
-8 -21 -15 -13 -6 -22 -7 -19 -3 7 11 -4 14 -161 49 -71 16 -119 30 -107 30
12 1 86 -12 164 -28z m-433 -5 c38 -20 79 -78 88 -126 7 -32 6 -34 -9 -21 -15
12 -17 11 -17 -3 0 -9 -4 -16 -9 -16 -5 0 -13 -10 -16 -21 -4 -12 -10 -17 -14
-12 -3 6 -14 7 -26 2 -11 -4 -15 -8 -8 -8 8 -1 8 -7 0 -25 -9 -19 -16 -22 -29
-15 -12 7 -25 2 -49 -21 -18 -16 -38 -40 -43 -53 -10 -21 -13 -22 -36 -10 -22
11 -23 13 -5 13 18 1 17 2 -4 11 -14 6 -28 6 -35 0 -6 -5 -32 -10 -58 -12 -37
-3 -48 -1 -49 11 -1 12 -2 11 -6 -2 -2 -9 3 -33 12 -54 l15 -37 -21 19 c-37
33 -52 76 -52 139 1 107 75 212 177 249 51 19 150 15 194 -8z m2627 -52 c-14
-31 -25 -59 -25 -62 0 -3 -2 -3 -5 0 -6 6 41 118 49 118 3 0 -5 -25 -19 -56z
m-1732 -69 c23 -11 47 -33 61 -59 28 -47 45 -113 27 -102 -6 4 -11 14 -11 22
0 28 -17 13 -26 -23 -8 -32 -14 -38 -38 -40 -16 -1 -77 -22 -137 -47 -60 -26
-119 -46 -132 -46 -13 0 -28 -5 -35 -12 -8 -8 -15 -8 -27 2 -20 16 -20 1 0
-47 20 -48 19 -49 -10 -15 -71 84 -57 208 35 302 84 86 196 112 293 65z m1668
-72 c-11 -21 -20 -35 -21 -31 0 12 33 78 38 74 2 -2 -6 -21 -17 -43z m-64
-144 c-19 -41 -78 -172 -132 -291 -54 -120 -100 -216 -102 -214 -4 3 9 33 78
184 16 35 29 65 29 67 0 2 17 41 39 87 21 46 56 120 76 166 21 45 40 80 42 78
2 -2 -12 -36 -30 -77z m-4027 -349 c0 -5 -4 -10 -10 -10 -5 0 -10 5 -10 10 0
6 5 10 10 10 6 0 10 -4 10 -10z m3751 -261 c-22 -46 -40 -80 -40 -76 -1 11 71
168 76 164 2 -2 -15 -42 -36 -88z m-53 -114 c-6 -14 -13 -23 -15 -21 -5 5 15
46 22 46 3 0 -1 -11 -7 -25z m-4107 -182 c-12 -20 -14 -14 -5 12 4 9 9 14 11
11 3 -2 0 -13 -6 -23z m-38 -108 c-9 -29 -16 -89 -17 -140 -1 -82 2 -96 31
-155 50 -105 117 -162 243 -213 83 -33 615 -167 1315 -332 110 -26 223 -53
250 -60 28 -8 111 -27 185 -44 74 -17 209 -49 300 -71 91 -22 199 -47 240 -55
308 -61 622 68 828 340 54 72 73 91 47 50 -92 -149 -254 -292 -402 -354 -181
-77 -355 -85 -603 -28 -173 40 -577 136 -705 167 -66 16 -185 45 -265 64
-1223 296 -1261 307 -1347 389 -18 17 -33 26 -33 21 0 -6 9 -19 20 -29 11 -10
22 -27 26 -39 3 -11 17 -37 31 -56 23 -33 22 -32 -11 5 -45 50 -128 210 -151
290 -21 70 -16 183 10 258 22 63 29 56 8 -8z m304 -331 c-7 -7 -64 22 -72 37
-4 6 12 1 35 -11 23 -12 40 -24 37 -26z m86 -1 c23 -3 36 -10 34 -17 -3 -7 5
-11 17 -11 23 0 35 -17 15 -24 -7 -2 -9 1 -4 9 5 8 4 11 -2 7 -16 -10 -74 4
-67 15 4 6 -1 8 -13 4 -10 -3 -28 1 -39 9 -19 14 -19 14 1 15 11 0 37 -3 58
-7z m128 -39 c8 -10 21 -13 38 -10 21 5 23 4 9 -4 -23 -14 -85 -3 -85 16 0 19
21 18 38 -2z m109 -44 c8 -5 11 -10 5 -10 -5 0 -17 5 -25 10 -8 5 -10 10 -5
10 6 0 17 -5 25 -10z m135 -18 c17 -5 37 -7 45 -4 8 3 12 2 9 -2 -11 -11 -81
-18 -75 -7 4 5 -7 9 -24 9 -17 -1 -36 4 -43 11 -9 9 -4 11 23 7 19 -3 49 -9
65 -14z m135 -28 c0 -2 -7 -4 -15 -4 -8 0 -15 4 -15 10 0 5 7 7 15 4 8 -4 15
-8 15 -10z m170 -56 c0 -6 11 -8 23 -6 14 3 24 0 24 -8 0 -8 -8 -9 -31 -2 -39
12 -57 16 -76 18 -10 1 -9 4 5 9 23 9 55 3 55 -11z m127 -35 c-7 -6 -67 9 -67
17 0 5 16 3 35 -3 19 -6 33 -12 32 -14z m10 21 c-3 -3 -12 -4 -19 -1 -8 3 -5
6 6 6 11 1 17 -2 13 -5z m193 -69 c31 -18 28 -18 -35 0 -40 11 -44 14 -20 14
17 0 41 -6 55 -14z m180 -15 c29 -7 31 -8 10 -10 -23 -1 -23 -2 -5 -10 11 -5
34 -9 50 -9 17 -1 37 -7 44 -13 10 -11 11 -10 6 3 -9 24 -6 23 465 -86 498
-115 599 -135 671 -135 130 1 240 54 367 180 42 41 66 61 54 43 -26 -37 -110
-114 -170 -155 -70 -48 -162 -87 -239 -100 -104 -17 -197 -3 -588 91 -668 160
-805 196 -805 208 0 13 67 9 140 -7z"/>
<path d="M5710 6410 c0 -5 5 -10 11 -10 5 0 7 5 4 10 -3 6 -8 10 -11 10 -2 0
-4 -4 -4 -10z"/>
<path d="M5598 6204 c-5 -4 -8 -15 -8 -25 0 -9 -6 -20 -12 -22 -7 -3 -8 -6 -3
-6 21 -1 37 17 33 39 -1 12 -6 18 -10 14z"/>
<path d="M5274 6166 c-17 -13 -17 -14 -1 -12 19 2 47 26 31 26 -6 0 -19 -6
-30 -14z"/>
<path d="M5330 6170 c-8 -5 -10 -10 -5 -11 6 0 1 -4 -10 -9 -18 -8 -18 -9 -2
-9 10 -1 27 4 37 9 13 7 21 7 25 0 3 -5 11 -10 17 -10 6 0 -1 9 -15 20 -29 23
-27 23 -47 10z"/>
<path d="M5880 6159 c0 -13 5 -31 10 -39 7 -11 8 -5 4 20 -8 43 -14 51 -14 19z"/>
<path d="M3501 5104 c0 -11 3 -14 6 -6 3 7 2 16 -1 19 -3 4 -6 -2 -5 -13z"/>
<path d="M3445 4420 c-3 -5 -1 -10 4 -10 6 0 11 5 11 10 0 6 -2 10 -4 10 -3 0
-8 -4 -11 -10z"/>
<path d="M2298 3703 c5 -10 7 -25 5 -33 -4 -13 -3 -13 6 -1 9 14 -2 51 -15 51
-2 0 -1 -8 4 -17z"/>
<path d="M3210 3675 c0 -16 33 -54 43 -48 6 4 3 11 -9 20 -10 8 -18 17 -16 21
2 3 -1 8 -7 10 -6 2 -11 1 -11 -3z"/>
<path d="M2247 3617 c-3 -8 1 -14 8 -14 7 0 11 6 8 14 -3 7 -6 13 -8 13 -2 0
-5 -6 -8 -13z"/>
<path d="M1882 2690 c0 -14 2 -19 5 -12 2 6 2 18 0 25 -3 6 -5 1 -5 -13z"/>
</g>
</svg>
